<?xml version="1.0" encoding="UTF-8" standalone="no"?>
<!DOCTYPE svg PUBLIC "-//W3C//DTD SVG 1.1//EN"
 "http://www.w3.org/Graphics/SVG/1.1/DTD/svg11.dtd">
<!-- Generated by graphviz version 10.0.1 (0)
 -->
<!-- Title: g Pages: 1 -->
<svg width="1509pt" height="916pt"
 viewBox="0.00 0.00 1508.62 916.00" xmlns="http://www.w3.org/2000/svg" xmlns:xlink="http://www.w3.org/1999/xlink">
<g id="graph0" class="graph" transform="scale(1 1) rotate(0) translate(4 912)">
<title>g</title>
<polygon fill="white" stroke="none" points="-4,4 -4,-912 1504.62,-912 1504.62,4 -4,4"/>
<!-- 16423 -->
<g id="node1" class="node">
<title>16423</title>
<polygon fill="none" stroke="black" points="0,-361 0,-386 264.25,-386 264.25,-361 0,-361"/>
<text text-anchor="start" x="108.12" y="-368.7" font-family="Helvetica,sans-serif" font-size="14.00" fill="#000000"> </text>
<text text-anchor="start" x="111.88" y="-368.7" font-family="Helvetica,sans-serif" font-weight="bold" font-size="14.00" fill="#000000"> actor </text>
<text text-anchor="start" x="152.38" y="-368.7" font-family="Helvetica,sans-serif" font-size="14.00" fill="#000000"> </text>
<polygon fill="#ddddff" stroke="none" points="0,-336 0,-361 264.25,-361 264.25,-336 0,-336"/>
<polygon fill="none" stroke="black" points="0,-336 0,-361 264.25,-361 264.25,-336 0,-336"/>
<text text-anchor="start" x="5" y="-343.7" font-family="Helvetica,sans-serif" font-size="14.00" fill="#000000"> actor_id </text>
<text text-anchor="start" x="60.5" y="-343.7" font-family="Helvetica,sans-serif" font-size="14.00" fill="#888888"> :: integer </text>
<text text-anchor="start" x="120.5" y="-343.7" font-family="Helvetica,sans-serif" font-size="14.00" fill="#000000"> </text>
<polygon fill="#ffffff" stroke="none" points="0,-311 0,-336 264.25,-336 264.25,-311 0,-311"/>
<polygon fill="none" stroke="black" points="0,-311 0,-336 264.25,-336 264.25,-311 0,-311"/>
<text text-anchor="start" x="5" y="-318.7" font-family="Helvetica,sans-serif" font-size="14.00" fill="#000000"> first_name </text>
<text text-anchor="start" x="76.25" y="-318.7" font-family="Helvetica,sans-serif" font-size="14.00" fill="#888888"> :: text </text>
<text text-anchor="start" x="116.75" y="-318.7" font-family="Helvetica,sans-serif" font-size="14.00" fill="#000000"> </text>
<polygon fill="#ffffff" stroke="none" points="0,-286 0,-311 264.25,-311 264.25,-286 0,-286"/>
<polygon fill="none" stroke="black" points="0,-286 0,-311 264.25,-311 264.25,-286 0,-286"/>
<text text-anchor="start" x="5" y="-293.7" font-family="Helvetica,sans-serif" font-size="14.00" fill="#000000"> last_name </text>
<text text-anchor="start" x="75.5" y="-293.7" font-family="Helvetica,sans-serif" font-size="14.00" fill="#888888"> :: text </text>
<text text-anchor="start" x="116" y="-293.7" font-family="Helvetica,sans-serif" font-size="14.00" fill="#000000"> </text>
<polygon fill="#ffffff" stroke="none" points="0,-261 0,-286 264.25,-286 264.25,-261 0,-261"/>
<polygon fill="none" stroke="black" points="0,-261 0,-286 264.25,-286 264.25,-261 0,-261"/>
<text text-anchor="start" x="5" y="-268.7" font-family="Helvetica,sans-serif" font-size="14.00" fill="#000000"> last_update </text>
<text text-anchor="start" x="82.25" y="-268.7" font-family="Helvetica,sans-serif" font-size="14.00" fill="#888888"> :: timestamp with time zone </text>
<text text-anchor="start" x="255.5" y="-268.7" font-family="Helvetica,sans-serif" font-size="14.00" fill="#000000"> </text>
</g>
<!-- 16431 -->
<g id="node2" class="node">
<title>16431</title>
<polygon fill="none" stroke="black" points="816,-348.5 816,-373.5 1080.25,-373.5 1080.25,-348.5 816,-348.5"/>
<text text-anchor="start" x="912.5" y="-356.2" font-family="Helvetica,sans-serif" font-size="14.00" fill="#000000"> </text>
<text text-anchor="start" x="916.25" y="-356.2" font-family="Helvetica,sans-serif" font-weight="bold" font-size="14.00" fill="#000000"> category </text>
<text text-anchor="start" x="980" y="-356.2" font-family="Helvetica,sans-serif" font-size="14.00" fill="#000000"> </text>
<polygon fill="#ddddff" stroke="none" points="816,-323.5 816,-348.5 1080.25,-348.5 1080.25,-323.5 816,-323.5"/>
<polygon fill="none" stroke="black" points="816,-323.5 816,-348.5 1080.25,-348.5 1080.25,-323.5 816,-323.5"/>
<text text-anchor="start" x="821" y="-331.2" font-family="Helvetica,sans-serif" font-size="14.00" fill="#000000"> category_id </text>
<text text-anchor="start" x="898.25" y="-331.2" font-family="Helvetica,sans-serif" font-size="14.00" fill="#888888"> :: integer </text>
<text text-anchor="start" x="958.25" y="-331.2" font-family="Helvetica,sans-serif" font-size="14.00" fill="#000000"> </text>
<polygon fill="#ffffff" stroke="none" points="816,-298.5 816,-323.5 1080.25,-323.5 1080.25,-298.5 816,-298.5"/>
<polygon fill="none" stroke="black" points="816,-298.5 816,-323.5 1080.25,-323.5 1080.25,-298.5 816,-298.5"/>
<text text-anchor="start" x="821" y="-306.2" font-family="Helvetica,sans-serif" font-size="14.00" fill="#000000"> name </text>
<text text-anchor="start" x="863" y="-306.2" font-family="Helvetica,sans-serif" font-size="14.00" fill="#888888"> :: text </text>
<text text-anchor="start" x="903.5" y="-306.2" font-family="Helvetica,sans-serif" font-size="14.00" fill="#000000"> </text>
<polygon fill="#ffffff" stroke="none" points="816,-273.5 816,-298.5 1080.25,-298.5 1080.25,-273.5 816,-273.5"/>
<polygon fill="none" stroke="black" points="816,-273.5 816,-298.5 1080.25,-298.5 1080.25,-273.5 816,-273.5"/>
<text text-anchor="start" x="821" y="-281.2" font-family="Helvetica,sans-serif" font-size="14.00" fill="#000000"> last_update </text>
<text text-anchor="start" x="898.25" y="-281.2" font-family="Helvetica,sans-serif" font-size="14.00" fill="#888888"> :: timestamp with time zone </text>
<text text-anchor="start" x="1071.5" y="-281.2" font-family="Helvetica,sans-serif" font-size="14.00" fill="#000000"> </text>
</g>
<!-- 16439 -->
<g id="node3" class="node">
<title>16439</title>
<polygon fill="none" stroke="black" points="408,-486 408,-511 672.25,-511 672.25,-486 408,-486"/>
<text text-anchor="start" x="520.25" y="-493.7" font-family="Helvetica,sans-serif" font-size="14.00" fill="#000000"> </text>
<text text-anchor="start" x="524" y="-493.7" font-family="Helvetica,sans-serif" font-weight="bold" font-size="14.00" fill="#000000"> film </text>
<text text-anchor="start" x="556.25" y="-493.7" font-family="Helvetica,sans-serif" font-size="14.00" fill="#000000"> </text>
<polygon fill="#ddddff" stroke="none" points="408,-461 408,-486 672.25,-486 672.25,-461 408,-461"/>
<polygon fill="none" stroke="black" points="408,-461 408,-486 672.25,-486 672.25,-461 408,-461"/>
<text text-anchor="start" x="413" y="-468.7" font-family="Helvetica,sans-serif" font-size="14.00" fill="#000000"> film_id </text>
<text text-anchor="start" x="460.25" y="-468.7" font-family="Helvetica,sans-serif" font-size="14.00" fill="#888888"> :: integer </text>
<text text-anchor="start" x="520.25" y="-468.7" font-family="Helvetica,sans-serif" font-size="14.00" fill="#000000"> </text>
<polygon fill="#ffffff" stroke="none" points="408,-436 408,-461 672.25,-461 672.25,-436 408,-436"/>
<polygon fill="none" stroke="black" points="408,-436 408,-461 672.25,-461 672.25,-436 408,-436"/>
<text text-anchor="start" x="413" y="-443.7" font-family="Helvetica,sans-serif" font-size="14.00" fill="#000000"> title </text>
<text text-anchor="start" x="441.5" y="-443.7" font-family="Helvetica,sans-serif" font-size="14.00" fill="#888888"> :: text </text>
<text text-anchor="start" x="482" y="-443.7" font-family="Helvetica,sans-serif" font-size="14.00" fill="#000000"> </text>
<polygon fill="#e8e8e8" stroke="none" points="408,-411 408,-436 672.25,-436 672.25,-411 408,-411"/>
<polygon fill="none" stroke="black" points="408,-411 408,-436 672.25,-436 672.25,-411 408,-411"/>
<text text-anchor="start" x="413" y="-418.7" font-family="Helvetica,sans-serif" font-size="14.00" fill="#000000"> description </text>
<text text-anchor="start" x="485.75" y="-418.7" font-family="Helvetica,sans-serif" font-size="14.00" fill="#888888"> :: text </text>
<text text-anchor="start" x="526.25" y="-418.7" font-family="Helvetica,sans-serif" font-size="14.00" fill="#000000"> </text>
<polygon fill="#e8e8e8" stroke="none" points="408,-386 408,-411 672.25,-411 672.25,-386 408,-386"/>
<polygon fill="none" stroke="black" points="408,-386 408,-411 672.25,-411 672.25,-386 408,-386"/>
<text text-anchor="start" x="413" y="-393.7" font-family="Helvetica,sans-serif" font-size="14.00" fill="#000000"> release_year </text>
<text text-anchor="start" x="498.5" y="-393.7" font-family="Helvetica,sans-serif" font-size="14.00" fill="#888888"> :: year </text>
<text text-anchor="start" x="543.5" y="-393.7" font-family="Helvetica,sans-serif" font-size="14.00" fill="#000000"> </text>
<polygon fill="#ffffff" stroke="none" points="408,-361 408,-386 672.25,-386 672.25,-361 408,-361"/>
<polygon fill="none" stroke="black" points="408,-361 408,-386 672.25,-386 672.25,-361 408,-361"/>
<text text-anchor="start" x="413" y="-368.7" font-family="Helvetica,sans-serif" font-size="14.00" fill="#000000"> language_id </text>
<text text-anchor="start" x="494" y="-368.7" font-family="Helvetica,sans-serif" font-size="14.00" fill="#888888"> :: integer </text>
<text text-anchor="start" x="554" y="-368.7" font-family="Helvetica,sans-serif" font-size="14.00" fill="#000000"> </text>
<polygon fill="#e8e8e8" stroke="none" points="408,-336 408,-361 672.25,-361 672.25,-336 408,-336"/>
<polygon fill="none" stroke="black" points="408,-336 408,-361 672.25,-361 672.25,-336 408,-336"/>
<text text-anchor="start" x="413" y="-343.7" font-family="Helvetica,sans-serif" font-size="14.00" fill="#000000"> original_language_id </text>
<text text-anchor="start" x="545" y="-343.7" font-family="Helvetica,sans-serif" font-size="14.00" fill="#888888"> :: integer </text>
<text text-anchor="start" x="605" y="-343.7" font-family="Helvetica,sans-serif" font-size="14.00" fill="#000000"> </text>
<polygon fill="#ffffff" stroke="none" points="408,-311 408,-336 672.25,-336 672.25,-311 408,-311"/>
<polygon fill="none" stroke="black" points="408,-311 408,-336 672.25,-336 672.25,-311 408,-311"/>
<text text-anchor="start" x="413" y="-318.7" font-family="Helvetica,sans-serif" font-size="14.00" fill="#000000"> rental_duration </text>
<text text-anchor="start" x="510.5" y="-318.7" font-family="Helvetica,sans-serif" font-size="14.00" fill="#888888"> :: smallint </text>
<text text-anchor="start" x="575.75" y="-318.7" font-family="Helvetica,sans-serif" font-size="14.00" fill="#000000"> </text>
<polygon fill="#ffffff" stroke="none" points="408,-286 408,-311 672.25,-311 672.25,-286 408,-286"/>
<polygon fill="none" stroke="black" points="408,-286 408,-311 672.25,-311 672.25,-286 408,-286"/>
<text text-anchor="start" x="413" y="-293.7" font-family="Helvetica,sans-serif" font-size="14.00" fill="#000000"> rental_rate </text>
<text text-anchor="start" x="485" y="-293.7" font-family="Helvetica,sans-serif" font-size="14.00" fill="#888888"> :: numeric(4,2) </text>
<text text-anchor="start" x="580.25" y="-293.7" font-family="Helvetica,sans-serif" font-size="14.00" fill="#000000"> </text>
<polygon fill="#e8e8e8" stroke="none" points="408,-261 408,-286 672.25,-286 672.25,-261 408,-261"/>
<polygon fill="none" stroke="black" points="408,-261 408,-286 672.25,-286 672.25,-261 408,-261"/>
<text text-anchor="start" x="413" y="-268.7" font-family="Helvetica,sans-serif" font-size="14.00" fill="#000000"> length </text>
<text text-anchor="start" x="457.25" y="-268.7" font-family="Helvetica,sans-serif" font-size="14.00" fill="#888888"> :: smallint </text>
<text text-anchor="start" x="522.5" y="-268.7" font-family="Helvetica,sans-serif" font-size="14.00" fill="#000000"> </text>
<polygon fill="#ffffff" stroke="none" points="408,-236 408,-261 672.25,-261 672.25,-236 408,-236"/>
<polygon fill="none" stroke="black" points="408,-236 408,-261 672.25,-261 672.25,-236 408,-236"/>
<text text-anchor="start" x="413" y="-243.7" font-family="Helvetica,sans-serif" font-size="14.00" fill="#000000"> replacement_cost </text>
<text text-anchor="start" x="527.75" y="-243.7" font-family="Helvetica,sans-serif" font-size="14.00" fill="#888888"> :: numeric(5,2) </text>
<text text-anchor="start" x="623" y="-243.7" font-family="Helvetica,sans-serif" font-size="14.00" fill="#000000"> </text>
<polygon fill="#e8e8e8" stroke="none" points="408,-211 408,-236 672.25,-236 672.25,-211 408,-211"/>
<polygon fill="none" stroke="black" points="408,-211 408,-236 672.25,-236 672.25,-211 408,-211"/>
<text text-anchor="start" x="413" y="-218.7" font-family="Helvetica,sans-serif" font-size="14.00" fill="#000000"> rating </text>
<text text-anchor="start" x="454.25" y="-218.7" font-family="Helvetica,sans-serif" font-size="14.00" fill="#888888"> :: mpaa_rating </text>
<text text-anchor="start" x="548.75" y="-218.7" font-family="Helvetica,sans-serif" font-size="14.00" fill="#000000"> </text>
<polygon fill="#ffffff" stroke="none" points="408,-186 408,-211 672.25,-211 672.25,-186 408,-186"/>
<polygon fill="none" stroke="black" points="408,-186 408,-211 672.25,-211 672.25,-186 408,-186"/>
<text text-anchor="start" x="413" y="-193.7" font-family="Helvetica,sans-serif" font-size="14.00" fill="#000000"> last_update </text>
<text text-anchor="start" x="490.25" y="-193.7" font-family="Helvetica,sans-serif" font-size="14.00" fill="#888888"> :: timestamp with time zone </text>
<text text-anchor="start" x="663.5" y="-193.7" font-family="Helvetica,sans-serif" font-size="14.00" fill="#000000"> </text>
<polygon fill="#e8e8e8" stroke="none" points="408,-161 408,-186 672.25,-186 672.25,-161 408,-161"/>
<polygon fill="none" stroke="black" points="408,-161 408,-186 672.25,-186 672.25,-161 408,-161"/>
<text text-anchor="start" x="413" y="-168.7" font-family="Helvetica,sans-serif" font-size="14.00" fill="#000000"> special_features </text>
<text text-anchor="start" x="518.75" y="-168.7" font-family="Helvetica,sans-serif" font-size="14.00" fill="#888888"> :: text[] </text>
<text text-anchor="start" x="566.75" y="-168.7" font-family="Helvetica,sans-serif" font-size="14.00" fill="#000000"> </text>
<polygon fill="#ffffff" stroke="none" points="408,-136 408,-161 672.25,-161 672.25,-136 408,-136"/>
<polygon fill="none" stroke="black" points="408,-136 408,-161 672.25,-161 672.25,-136 408,-136"/>
<text text-anchor="start" x="413" y="-143.7" font-family="Helvetica,sans-serif" font-size="14.00" fill="#000000"> fulltext </text>
<text text-anchor="start" x="459.5" y="-143.7" font-family="Helvetica,sans-serif" font-size="14.00" fill="#888888"> :: tsvector </text>
<text text-anchor="start" x="525.5" y="-143.7" font-family="Helvetica,sans-serif" font-size="14.00" fill="#000000"> </text>
</g>
<!-- 16504 -->
<g id="node7" class="node">
<title>16504</title>
<polygon fill="none" stroke="black" points="408,-75 408,-100 672.25,-100 672.25,-75 408,-75"/>
<text text-anchor="start" x="503" y="-82.7" font-family="Helvetica,sans-serif" font-size="14.00" fill="#000000"> </text>
<text text-anchor="start" x="506.75" y="-82.7" font-family="Helvetica,sans-serif" font-weight="bold" font-size="14.00" fill="#000000"> language </text>
<text text-anchor="start" x="573.5" y="-82.7" font-family="Helvetica,sans-serif" font-size="14.00" fill="#000000"> </text>
<polygon fill="#ddddff" stroke="none" points="408,-50 408,-75 672.25,-75 672.25,-50 408,-50"/>
<polygon fill="none" stroke="black" points="408,-50 408,-75 672.25,-75 672.25,-50 408,-50"/>
<text text-anchor="start" x="413" y="-57.7" font-family="Helvetica,sans-serif" font-size="14.00" fill="#000000"> language_id </text>
<text text-anchor="start" x="494" y="-57.7" font-family="Helvetica,sans-serif" font-size="14.00" fill="#888888"> :: integer </text>
<text text-anchor="start" x="554" y="-57.7" font-family="Helvetica,sans-serif" font-size="14.00" fill="#000000"> </text>
<polygon fill="#ffffff" stroke="none" points="408,-25 408,-50 672.25,-50 672.25,-25 408,-25"/>
<polygon fill="none" stroke="black" points="408,-25 408,-50 672.25,-50 672.25,-25 408,-25"/>
<text text-anchor="start" x="413" y="-32.7" font-family="Helvetica,sans-serif" font-size="14.00" fill="#000000"> name </text>
<text text-anchor="start" x="455" y="-32.7" font-family="Helvetica,sans-serif" font-size="14.00" fill="#888888"> :: character(20) </text>
<text text-anchor="start" x="554" y="-32.7" font-family="Helvetica,sans-serif" font-size="14.00" fill="#000000"> </text>
<polygon fill="#ffffff" stroke="none" points="408,0 408,-25 672.25,-25 672.25,0 408,0"/>
<polygon fill="none" stroke="black" points="408,0 408,-25 672.25,-25 672.25,0 408,0"/>
<text text-anchor="start" x="413" y="-7.7" font-family="Helvetica,sans-serif" font-size="14.00" fill="#000000"> last_update </text>
<text text-anchor="start" x="490.25" y="-7.7" font-family="Helvetica,sans-serif" font-size="14.00" fill="#888888"> :: timestamp with time zone </text>
<text text-anchor="start" x="663.5" y="-7.7" font-family="Helvetica,sans-serif" font-size="14.00" fill="#000000"> </text>
</g>
<!-- 16439&#45;&gt;16504 -->
<g id="edge5" class="edge">
<title>16439:f5&#45;&gt;16504:f1</title>
<path fill="none" stroke="black" d="M673.12,-373.5C738.22,-373.5 741.9,-97.18 684.19,-65.88"/>
<polygon fill="black" stroke="black" points="685.15,-62.51 674.59,-63.38 683.39,-69.28 685.15,-62.51"/>
</g>
<!-- 16439&#45;&gt;16504 -->
<g id="edge6" class="edge">
<title>16439:f6&#45;&gt;16504:f1</title>
<path fill="none" stroke="black" d="M673.12,-348.5C732.73,-348.5 736.34,-96.53 683.95,-66.01"/>
<polygon fill="black" stroke="black" points="685.16,-62.72 674.58,-63.41 683.28,-69.46 685.16,-62.72"/>
</g>
<!-- 16450 -->
<g id="node4" class="node">
<title>16450</title>
<polygon fill="none" stroke="black" points="51,-634.5 51,-659.5 315.25,-659.5 315.25,-634.5 51,-634.5"/>
<text text-anchor="start" x="143" y="-642.2" font-family="Helvetica,sans-serif" font-size="14.00" fill="#000000"> </text>
<text text-anchor="start" x="146.75" y="-642.2" font-family="Helvetica,sans-serif" font-weight="bold" font-size="14.00" fill="#000000"> film_actor </text>
<text text-anchor="start" x="219.5" y="-642.2" font-family="Helvetica,sans-serif" font-size="14.00" fill="#000000"> </text>
<polygon fill="#ddddff" stroke="none" points="51,-609.5 51,-634.5 315.25,-634.5 315.25,-609.5 51,-609.5"/>
<polygon fill="none" stroke="black" points="51,-609.5 51,-634.5 315.25,-634.5 315.25,-609.5 51,-609.5"/>
<text text-anchor="start" x="56" y="-617.2" font-family="Helvetica,sans-serif" font-size="14.00" fill="#000000"> actor_id </text>
<text text-anchor="start" x="111.5" y="-617.2" font-family="Helvetica,sans-serif" font-size="14.00" fill="#888888"> :: integer </text>
<text text-anchor="start" x="171.5" y="-617.2" font-family="Helvetica,sans-serif" font-size="14.00" fill="#000000"> </text>
<polygon fill="#ddddff" stroke="none" points="51,-584.5 51,-609.5 315.25,-609.5 315.25,-584.5 51,-584.5"/>
<polygon fill="none" stroke="black" points="51,-584.5 51,-609.5 315.25,-609.5 315.25,-584.5 51,-584.5"/>
<text text-anchor="start" x="56" y="-592.2" font-family="Helvetica,sans-serif" font-size="14.00" fill="#000000"> film_id </text>
<text text-anchor="start" x="103.25" y="-592.2" font-family="Helvetica,sans-serif" font-size="14.00" fill="#888888"> :: integer </text>
<text text-anchor="start" x="163.25" y="-592.2" font-family="Helvetica,sans-serif" font-size="14.00" fill="#000000"> </text>
<polygon fill="#ffffff" stroke="none" points="51,-559.5 51,-584.5 315.25,-584.5 315.25,-559.5 51,-559.5"/>
<polygon fill="none" stroke="black" points="51,-559.5 51,-584.5 315.25,-584.5 315.25,-559.5 51,-559.5"/>
<text text-anchor="start" x="56" y="-567.2" font-family="Helvetica,sans-serif" font-size="14.00" fill="#000000"> last_update </text>
<text text-anchor="start" x="133.25" y="-567.2" font-family="Helvetica,sans-serif" font-size="14.00" fill="#888888"> :: timestamp with time zone </text>
<text text-anchor="start" x="306.5" y="-567.2" font-family="Helvetica,sans-serif" font-size="14.00" fill="#000000"> </text>
</g>
<!-- 16450&#45;&gt;16423 -->
<g id="edge1" class="edge">
<title>16450:f1&#45;&gt;16423:f1</title>
<path fill="none" stroke="black" d="M50.12,-622.5C22.12,-622.5 38.91,-584.7 51.12,-559.5 107.59,-443.08 380.84,-354.2 276.43,-348.76"/>
<polygon fill="black" stroke="black" points="276.72,-345.27 266.64,-348.54 276.55,-352.27 276.72,-345.27"/>
</g>
<!-- 16450&#45;&gt;16439 -->
<g id="edge2" class="edge">
<title>16450:f2&#45;&gt;16439:f1</title>
<path fill="none" stroke="black" d="M316.12,-596.5C380.01,-596.5 344.16,-487.94 395.97,-474.8"/>
<polygon fill="black" stroke="black" points="396.09,-478.31 405.62,-473.67 395.28,-471.35 396.09,-478.31"/>
</g>
<!-- 16454 -->
<g id="node5" class="node">
<title>16454</title>
<polygon fill="none" stroke="black" points="561,-634.5 561,-659.5 825.25,-659.5 825.25,-634.5 561,-634.5"/>
<text text-anchor="start" x="641.38" y="-642.2" font-family="Helvetica,sans-serif" font-size="14.00" fill="#000000"> </text>
<text text-anchor="start" x="645.12" y="-642.2" font-family="Helvetica,sans-serif" font-weight="bold" font-size="14.00" fill="#000000"> film_category </text>
<text text-anchor="start" x="741.12" y="-642.2" font-family="Helvetica,sans-serif" font-size="14.00" fill="#000000"> </text>
<polygon fill="#ddddff" stroke="none" points="561,-609.5 561,-634.5 825.25,-634.5 825.25,-609.5 561,-609.5"/>
<polygon fill="none" stroke="black" points="561,-609.5 561,-634.5 825.25,-634.5 825.25,-609.5 561,-609.5"/>
<text text-anchor="start" x="566" y="-617.2" font-family="Helvetica,sans-serif" font-size="14.00" fill="#000000"> film_id </text>
<text text-anchor="start" x="613.25" y="-617.2" font-family="Helvetica,sans-serif" font-size="14.00" fill="#888888"> :: integer </text>
<text text-anchor="start" x="673.25" y="-617.2" font-family="Helvetica,sans-serif" font-size="14.00" fill="#000000"> </text>
<polygon fill="#ddddff" stroke="none" points="561,-584.5 561,-609.5 825.25,-609.5 825.25,-584.5 561,-584.5"/>
<polygon fill="none" stroke="black" points="561,-584.5 561,-609.5 825.25,-609.5 825.25,-584.5 561,-584.5"/>
<text text-anchor="start" x="566" y="-592.2" font-family="Helvetica,sans-serif" font-size="14.00" fill="#000000"> category_id </text>
<text text-anchor="start" x="643.25" y="-592.2" font-family="Helvetica,sans-serif" font-size="14.00" fill="#888888"> :: integer </text>
<text text-anchor="start" x="703.25" y="-592.2" font-family="Helvetica,sans-serif" font-size="14.00" fill="#000000"> </text>
<polygon fill="#ffffff" stroke="none" points="561,-559.5 561,-584.5 825.25,-584.5 825.25,-559.5 561,-559.5"/>
<polygon fill="none" stroke="black" points="561,-559.5 561,-584.5 825.25,-584.5 825.25,-559.5 561,-559.5"/>
<text text-anchor="start" x="566" y="-567.2" font-family="Helvetica,sans-serif" font-size="14.00" fill="#000000"> last_update </text>
<text text-anchor="start" x="643.25" y="-567.2" font-family="Helvetica,sans-serif" font-size="14.00" fill="#888888"> :: timestamp with time zone </text>
<text text-anchor="start" x="816.5" y="-567.2" font-family="Helvetica,sans-serif" font-size="14.00" fill="#000000"> </text>
</g>
<!-- 16454&#45;&gt;16431 -->
<g id="edge3" class="edge">
<title>16454:f2&#45;&gt;16431:f1</title>
<path fill="none" stroke="black" d="M826.12,-596.5C937.49,-596.5 716.96,-355.44 803.69,-337.55"/>
<polygon fill="black" stroke="black" points="803.98,-341.04 813.62,-336.64 803.34,-334.07 803.98,-341.04"/>
</g>
<!-- 16454&#45;&gt;16439 -->
<g id="edge4" class="edge">
<title>16454:f1&#45;&gt;16439:f1</title>
<path fill="none" stroke="black" d="M560.12,-622.5C532.12,-622.5 545.61,-582.81 561.12,-559.5 590.96,-514.69 642.05,-555.65 672.12,-511 678.31,-501.82 684.07,-488.29 682.37,-480.24"/>
<polygon fill="black" stroke="black" points="684.49,-477.46 674.35,-474.39 680.36,-483.11 684.49,-477.46"/>
</g>
<!-- 16498 -->
<g id="node6" class="node">
<title>16498</title>
<polygon fill="none" stroke="black" points="1173,-647 1173,-672 1437.25,-672 1437.25,-647 1173,-647"/>
<text text-anchor="start" x="1267.25" y="-654.7" font-family="Helvetica,sans-serif" font-size="14.00" fill="#000000"> </text>
<text text-anchor="start" x="1271" y="-654.7" font-family="Helvetica,sans-serif" font-weight="bold" font-size="14.00" fill="#000000"> inventory </text>
<text text-anchor="start" x="1339.25" y="-654.7" font-family="Helvetica,sans-serif" font-size="14.00" fill="#000000"> </text>
<polygon fill="#ddddff" stroke="none" points="1173,-622 1173,-647 1437.25,-647 1437.25,-622 1173,-622"/>
<polygon fill="none" stroke="black" points="1173,-622 1173,-647 1437.25,-647 1437.25,-622 1173,-622"/>
<text text-anchor="start" x="1178" y="-629.7" font-family="Helvetica,sans-serif" font-size="14.00" fill="#000000"> inventory_id </text>
<text text-anchor="start" x="1258.25" y="-629.7" font-family="Helvetica,sans-serif" font-size="14.00" fill="#888888"> :: integer </text>
<text text-anchor="start" x="1318.25" y="-629.7" font-family="Helvetica,sans-serif" font-size="14.00" fill="#000000"> </text>
<polygon fill="#ffffff" stroke="none" points="1173,-597 1173,-622 1437.25,-622 1437.25,-597 1173,-597"/>
<polygon fill="none" stroke="black" points="1173,-597 1173,-622 1437.25,-622 1437.25,-597 1173,-597"/>
<text text-anchor="start" x="1178" y="-604.7" font-family="Helvetica,sans-serif" font-size="14.00" fill="#000000"> film_id </text>
<text text-anchor="start" x="1225.25" y="-604.7" font-family="Helvetica,sans-serif" font-size="14.00" fill="#888888"> :: integer </text>
<text text-anchor="start" x="1285.25" y="-604.7" font-family="Helvetica,sans-serif" font-size="14.00" fill="#000000"> </text>
<polygon fill="#ffffff" stroke="none" points="1173,-572 1173,-597 1437.25,-597 1437.25,-572 1173,-572"/>
<polygon fill="none" stroke="black" points="1173,-572 1173,-597 1437.25,-597 1437.25,-572 1173,-572"/>
<text text-anchor="start" x="1178" y="-579.7" font-family="Helvetica,sans-serif" font-size="14.00" fill="#000000"> store_id </text>
<text text-anchor="start" x="1233.5" y="-579.7" font-family="Helvetica,sans-serif" font-size="14.00" fill="#888888"> :: integer </text>
<text text-anchor="start" x="1293.5" y="-579.7" font-family="Helvetica,sans-serif" font-size="14.00" fill="#000000"> </text>
<polygon fill="#ffffff" stroke="none" points="1173,-547 1173,-572 1437.25,-572 1437.25,-547 1173,-547"/>
<polygon fill="none" stroke="black" points="1173,-547 1173,-572 1437.25,-572 1437.25,-547 1173,-547"/>
<text text-anchor="start" x="1178" y="-554.7" font-family="Helvetica,sans-serif" font-size="14.00" fill="#000000"> last_update </text>
<text text-anchor="start" x="1255.25" y="-554.7" font-family="Helvetica,sans-serif" font-size="14.00" fill="#888888"> :: timestamp with time zone </text>
<text text-anchor="start" x="1428.5" y="-554.7" font-family="Helvetica,sans-serif" font-size="14.00" fill="#000000"> </text>
</g>
<!-- 16498&#45;&gt;16439 -->
<g id="edge7" class="edge">
<title>16498:f2&#45;&gt;16439:f1</title>
<path fill="none" stroke="black" d="M1172.12,-609.5C1166.03,-609.5 749.84,-513.13 744.12,-511 714.6,-500.02 709.68,-479.2 684.38,-474.47"/>
<polygon fill="black" stroke="black" points="684.9,-471 674.63,-473.63 684.29,-477.98 684.9,-471"/>
</g>
<!-- 16577 -->
<g id="node9" class="node">
<title>16577</title>
<polygon fill="none" stroke="black" points="1224,-361 1224,-386 1488.25,-386 1488.25,-361 1224,-361"/>
<text text-anchor="start" x="1332.12" y="-368.7" font-family="Helvetica,sans-serif" font-size="14.00" fill="#000000"> </text>
<text text-anchor="start" x="1335.88" y="-368.7" font-family="Helvetica,sans-serif" font-weight="bold" font-size="14.00" fill="#000000"> store </text>
<text text-anchor="start" x="1376.38" y="-368.7" font-family="Helvetica,sans-serif" font-size="14.00" fill="#000000"> </text>
<polygon fill="#ddddff" stroke="none" points="1224,-336 1224,-361 1488.25,-361 1488.25,-336 1224,-336"/>
<polygon fill="none" stroke="black" points="1224,-336 1224,-361 1488.25,-361 1488.25,-336 1224,-336"/>
<text text-anchor="start" x="1229" y="-343.7" font-family="Helvetica,sans-serif" font-size="14.00" fill="#000000"> store_id </text>
<text text-anchor="start" x="1284.5" y="-343.7" font-family="Helvetica,sans-serif" font-size="14.00" fill="#888888"> :: integer </text>
<text text-anchor="start" x="1344.5" y="-343.7" font-family="Helvetica,sans-serif" font-size="14.00" fill="#000000"> </text>
<polygon fill="#ffffff" stroke="none" points="1224,-311 1224,-336 1488.25,-336 1488.25,-311 1224,-311"/>
<polygon fill="none" stroke="black" points="1224,-311 1224,-336 1488.25,-336 1488.25,-311 1224,-311"/>
<text text-anchor="start" x="1229" y="-318.7" font-family="Helvetica,sans-serif" font-size="14.00" fill="#000000"> manager_staff_id </text>
<text text-anchor="start" x="1341.5" y="-318.7" font-family="Helvetica,sans-serif" font-size="14.00" fill="#888888"> :: integer </text>
<text text-anchor="start" x="1401.5" y="-318.7" font-family="Helvetica,sans-serif" font-size="14.00" fill="#000000"> </text>
<polygon fill="#ffffff" stroke="none" points="1224,-286 1224,-311 1488.25,-311 1488.25,-286 1224,-286"/>
<polygon fill="none" stroke="black" points="1224,-286 1224,-311 1488.25,-311 1488.25,-286 1224,-286"/>
<text text-anchor="start" x="1229" y="-293.7" font-family="Helvetica,sans-serif" font-size="14.00" fill="#000000"> address_id </text>
<text text-anchor="start" x="1302.5" y="-293.7" font-family="Helvetica,sans-serif" font-size="14.00" fill="#888888"> :: integer </text>
<text text-anchor="start" x="1362.5" y="-293.7" font-family="Helvetica,sans-serif" font-size="14.00" fill="#000000"> </text>
<polygon fill="#ffffff" stroke="none" points="1224,-261 1224,-286 1488.25,-286 1488.25,-261 1224,-261"/>
<polygon fill="none" stroke="black" points="1224,-261 1224,-286 1488.25,-286 1488.25,-261 1224,-261"/>
<text text-anchor="start" x="1229" y="-268.7" font-family="Helvetica,sans-serif" font-size="14.00" fill="#000000"> last_update </text>
<text text-anchor="start" x="1306.25" y="-268.7" font-family="Helvetica,sans-serif" font-size="14.00" fill="#888888"> :: timestamp with time zone </text>
<text text-anchor="start" x="1479.5" y="-268.7" font-family="Helvetica,sans-serif" font-size="14.00" fill="#000000"> </text>
</g>
<!-- 16498&#45;&gt;16577 -->
<g id="edge8" class="edge">
<title>16498:f3&#45;&gt;16577:f1</title>
<path fill="none" stroke="black" d="M1438.12,-584.5C1575.58,-584.5 1111.78,-363.02 1211.66,-349.18"/>
<polygon fill="black" stroke="black" points="1211.84,-352.67 1221.61,-348.59 1211.43,-345.68 1211.84,-352.67"/>
</g>
<!-- 16550 -->
<g id="node8" class="node">
<title>16550</title>
<polygon fill="none" stroke="black" points="1173,-883 1173,-908 1437.25,-908 1437.25,-883 1173,-883"/>
<text text-anchor="start" x="1279.25" y="-890.7" font-family="Helvetica,sans-serif" font-size="14.00" fill="#000000"> </text>
<text text-anchor="start" x="1283" y="-890.7" font-family="Helvetica,sans-serif" font-weight="bold" font-size="14.00" fill="#000000"> rental </text>
<text text-anchor="start" x="1327.25" y="-890.7" font-family="Helvetica,sans-serif" font-size="14.00" fill="#000000"> </text>
<polygon fill="#ddddff" stroke="none" points="1173,-858 1173,-883 1437.25,-883 1437.25,-858 1173,-858"/>
<polygon fill="none" stroke="black" points="1173,-858 1173,-883 1437.25,-883 1437.25,-858 1173,-858"/>
<text text-anchor="start" x="1178" y="-865.7" font-family="Helvetica,sans-serif" font-size="14.00" fill="#000000"> rental_id </text>
<text text-anchor="start" x="1237.25" y="-865.7" font-family="Helvetica,sans-serif" font-size="14.00" fill="#888888"> :: integer </text>
<text text-anchor="start" x="1297.25" y="-865.7" font-family="Helvetica,sans-serif" font-size="14.00" fill="#000000"> </text>
<polygon fill="#ffffff" stroke="none" points="1173,-833 1173,-858 1437.25,-858 1437.25,-833 1173,-833"/>
<polygon fill="none" stroke="black" points="1173,-833 1173,-858 1437.25,-858 1437.25,-833 1173,-833"/>
<text text-anchor="start" x="1178" y="-840.7" font-family="Helvetica,sans-serif" font-size="14.00" fill="#000000"> rental_date </text>
<text text-anchor="start" x="1253" y="-840.7" font-family="Helvetica,sans-serif" font-size="14.00" fill="#888888"> :: timestamp with time zone </text>
<text text-anchor="start" x="1426.25" y="-840.7" font-family="Helvetica,sans-serif" font-size="14.00" fill="#000000"> </text>
<polygon fill="#ffffff" stroke="none" points="1173,-808 1173,-833 1437.25,-833 1437.25,-808 1173,-808"/>
<polygon fill="none" stroke="black" points="1173,-808 1173,-833 1437.25,-833 1437.25,-808 1173,-808"/>
<text text-anchor="start" x="1178" y="-815.7" font-family="Helvetica,sans-serif" font-size="14.00" fill="#000000"> inventory_id </text>
<text text-anchor="start" x="1258.25" y="-815.7" font-family="Helvetica,sans-serif" font-size="14.00" fill="#888888"> :: integer </text>
<text text-anchor="start" x="1318.25" y="-815.7" font-family="Helvetica,sans-serif" font-size="14.00" fill="#000000"> </text>
<polygon fill="#ffffff" stroke="none" points="1173,-783 1173,-808 1437.25,-808 1437.25,-783 1173,-783"/>
<polygon fill="none" stroke="black" points="1173,-783 1173,-808 1437.25,-808 1437.25,-783 1173,-783"/>
<text text-anchor="start" x="1178" y="-790.7" font-family="Helvetica,sans-serif" font-size="14.00" fill="#000000"> customer_id </text>
<text text-anchor="start" x="1259.75" y="-790.7" font-family="Helvetica,sans-serif" font-size="14.00" fill="#888888"> :: integer </text>
<text text-anchor="start" x="1319.75" y="-790.7" font-family="Helvetica,sans-serif" font-size="14.00" fill="#000000"> </text>
<polygon fill="#e8e8e8" stroke="none" points="1173,-758 1173,-783 1437.25,-783 1437.25,-758 1173,-758"/>
<polygon fill="none" stroke="black" points="1173,-758 1173,-783 1437.25,-783 1437.25,-758 1173,-758"/>
<text text-anchor="start" x="1178" y="-765.7" font-family="Helvetica,sans-serif" font-size="14.00" fill="#000000"> return_date </text>
<text text-anchor="start" x="1254.5" y="-765.7" font-family="Helvetica,sans-serif" font-size="14.00" fill="#888888"> :: timestamp with time zone </text>
<text text-anchor="start" x="1427.75" y="-765.7" font-family="Helvetica,sans-serif" font-size="14.00" fill="#000000"> </text>
<polygon fill="#ffffff" stroke="none" points="1173,-733 1173,-758 1437.25,-758 1437.25,-733 1173,-733"/>
<polygon fill="none" stroke="black" points="1173,-733 1173,-758 1437.25,-758 1437.25,-733 1173,-733"/>
<text text-anchor="start" x="1178" y="-740.7" font-family="Helvetica,sans-serif" font-size="14.00" fill="#000000"> staff_id </text>
<text text-anchor="start" x="1229" y="-740.7" font-family="Helvetica,sans-serif" font-size="14.00" fill="#888888"> :: integer </text>
<text text-anchor="start" x="1289" y="-740.7" font-family="Helvetica,sans-serif" font-size="14.00" fill="#000000"> </text>
<polygon fill="#ffffff" stroke="none" points="1173,-708 1173,-733 1437.25,-733 1437.25,-708 1173,-708"/>
<polygon fill="none" stroke="black" points="1173,-708 1173,-733 1437.25,-733 1437.25,-708 1173,-708"/>
<text text-anchor="start" x="1178" y="-715.7" font-family="Helvetica,sans-serif" font-size="14.00" fill="#000000"> last_update </text>
<text text-anchor="start" x="1255.25" y="-715.7" font-family="Helvetica,sans-serif" font-size="14.00" fill="#888888"> :: timestamp with time zone </text>
<text text-anchor="start" x="1428.5" y="-715.7" font-family="Helvetica,sans-serif" font-size="14.00" fill="#000000"> </text>
</g>
<!-- 16550&#45;&gt;16498 -->
<g id="edge9" class="edge">
<title>16550:f3&#45;&gt;16498:f1</title>
<path fill="none" stroke="black" d="M1438.12,-821C1517.13,-821 1520.83,-651.57 1449.23,-635.69"/>
<polygon fill="black" stroke="black" points="1449.95,-632.25 1439.63,-634.66 1449.2,-639.21 1449.95,-632.25"/>
</g>
</g>
</svg>
